# xmcd CD database file
#
# Track frame offsets:
#	150
#	15800
#	40730
#	62180
#	80160
#	95360
#	112390
#	132020
#	152670
#	173340
#	189380
#	207330
#	225050
#	240610
#
# Disc length: 3455 seconds
#
# Revision: 0
# Processed by: cddbd v1.5.2PL0 Copyright (c) Steve Scherf et al.
# Submitted via: CDex 1.51
#
DISCID=a40d7d0e
DTITLE=Sara Evans - Greatest Hits
DYEAR=2007
DGENRE=Country
TTITLE0=As If
TTITLE1=Born to Fly
TTITLE2=I Could Not Ask For More
TTITLE3=Perfect
TTITLE4=Cheatin'
TTITLE5=Suds in the Bucket
TTITLE6=Saints and Angels
TTITLE7=You'll Always By My Baby
TTITLE8=I Keep Looking
TTITLE9=No Place That Far
TTITLE10=A Real Fine Place to Start
TTITLE11=Love You With All My Heart
TTITLE12=Pray For You
TTITLE13=Some Things Never Change
EXTD=YEAR: 2007
EXTT0=
EXTT1=
EXTT2=
EXTT3=
EXTT4=
EXTT5=
EXTT6=
EXTT7=
EXTT8=
EXTT9=
EXTT10=
EXTT11=
EXTT12=
EXTT13=
PLAYORDER=
